<?xml version="1.0" encoding="utf-8"?>
<!-- Generator: Adobe Illustrator 16.0.0, SVG Export Plug-In . SVG Version: 6.00 Build 0)  -->
<!DOCTYPE svg PUBLIC "-//W3C//DTD SVG 1.1//EN" "http://www.w3.org/Graphics/SVG/1.1/DTD/svg11.dtd">
<svg version="1.1" id="Layer_1" xmlns="http://www.w3.org/2000/svg" xmlns:xlink="http://www.w3.org/1999/xlink" x="0px" y="0px"
	 width="304.353px" height="301px" viewBox="0 0 304.353 301" enable-background="new 0 0 304.353 301" xml:space="preserve">
<g>
	<g>
		<line fill="none" stroke="#000000" stroke-width="2" stroke-linejoin="round" x1="41" y1="1" x2="35" y2="1"/>
		
			<line fill="none" stroke="#000000" stroke-width="2" stroke-linejoin="round" stroke-dasharray="10.1818,2.5455" x1="32.455" y1="1" x2="8.273" y2="1"/>
		<line fill="none" stroke="#000000" stroke-width="2" stroke-linejoin="round" x1="7" y1="1" x2="1" y2="1"/>
	</g>
</g>
<g>
	<g>
		<line fill="none" stroke="#000000" stroke-width="2" stroke-linejoin="round" x1="1" y1="1" x2="1" y2="7"/>
		
			<line fill="none" stroke="#000000" stroke-width="2" stroke-linejoin="round" stroke-dasharray="11.6056,2.9014" x1="1" y1="9.901" x2="1" y2="211.549"/>
		<line fill="none" stroke="#000000" stroke-width="2" stroke-linejoin="round" x1="1" y1="213" x2="1" y2="219"/>
	</g>
</g>
<g>
	<g>
		<line fill="none" stroke="#000000" stroke-width="2" stroke-linejoin="round" x1="1" y1="219" x2="7" y2="219"/>
		
			<line fill="none" stroke="#000000" stroke-width="2" stroke-linejoin="round" stroke-dasharray="12,3" x1="10" y1="219" x2="293.5" y2="219"/>
		<line fill="none" stroke="#000000" stroke-width="2" stroke-linejoin="round" x1="295" y1="219" x2="301" y2="219"/>
	</g>
</g>
<g>
	<g>
		<line fill="none" stroke="#000000" stroke-width="2" stroke-linejoin="round" x1="301" y1="219" x2="301" y2="225"/>
		
			<line fill="none" stroke="#000000" stroke-width="2" stroke-linejoin="round" stroke-dasharray="12.8979,3.2245" x1="301" y1="228.225" x2="301" y2="291.102"/>
		<line fill="none" stroke="#000000" stroke-width="2" stroke-linejoin="round" x1="301" y1="292.714" x2="301" y2="298.714"/>
		<g>
			<polygon points="297.609,294.73 301,298.123 304.391,294.73 304.391,297.609 301,301 297.609,297.609 			"/>
		</g>
	</g>
</g>
</svg>
