<?xml version="1.0" encoding="utf-8"?>
<!-- Generator: Adobe Illustrator 16.0.0, SVG Export Plug-In . SVG Version: 6.00 Build 0)  -->
<!DOCTYPE svg PUBLIC "-//W3C//DTD SVG 1.1//EN" "http://www.w3.org/Graphics/SVG/1.1/DTD/svg11.dtd">
<svg version="1.1" id="Layer_1" xmlns="http://www.w3.org/2000/svg" xmlns:xlink="http://www.w3.org/1999/xlink" x="0px" y="0px"
	 width="248.118px" height="80px" viewBox="0 0 248.118 80" enable-background="new 0 0 248.118 80" xml:space="preserve">
<text transform="matrix(1 0 0 1 0.2793 66.6562)" font-family="'Mordred-Bold'" font-size="40">The Royal Fork</text>
<g>
	<path fill="#030104" stroke="#030104" stroke-width="1.5" stroke-linecap="round" stroke-linejoin="round" d="M124.572,5.701
		c10.5,1,16.5,8,16,29h-23c0-9,10-6.5,8-21"/>
	<path fill="#030104" stroke="#030104" stroke-width="1.5" stroke-linecap="round" stroke-linejoin="round" d="M126.572,13.701
		c0.38,2.91-5.55,7.37-8,9c-3,2-2.82,4.34-5,4c-1.042-0.939,1.41-3.04,0-3c-1,0,0.19,1.23-1,2c-1,0-4.003,1-4-4c0-2,6-12,6-12
		s1.89-1.9,2-3.5c-0.73-0.994-0.5-2-0.5-3c1-1,3,2.5,3,2.5h2c0,0,0.78-1.992,2.5-3c1,0,1,3,1,3"/>
	<path fill="#FFFFFF" stroke="#FFFFFF" stroke-width="1.5" stroke-linecap="round" stroke-linejoin="round" d="M112.072,21.201
		c0,0.276-0.224,0.5-0.5,0.5s-0.5-0.224-0.5-0.5s0.224-0.5,0.5-0.5S112.072,20.925,112.072,21.201z"/>
	<path fill="#FFFFFF" stroke="#FFFFFF" stroke-width="1.5" stroke-linecap="round" stroke-linejoin="round" d="M117.505,11.451
		c-0.415,0.717-0.944,1.188-1.183,1.049c-0.239-0.138-0.097-0.832,0.317-1.549c0.415-0.717,0.944-1.188,1.183-1.049
		C118.061,10.04,117.919,10.734,117.505,11.451z"/>
	<path fill="#FFFFFF" d="M127.122,6.102l-0.45,1.449l0.5,0.15c3.15,1,5.65,2.49,7.9,6.75s3.25,10.311,2.75,20.25l-0.05,0.5h2.25
		l0.05-0.5c0.5-10.061-0.88-16.85-3.25-21.34s-5.79-6.641-9.189-7.16L127.122,6.102z"/>
</g>
<polyline fill="none" stroke="#00388A" stroke-width="3" stroke-miterlimit="10" points="98.454,20.201 4.465,20.201 4.465,32.775 
	"/>
<polyline fill="none" stroke="#00388A" stroke-width="3" stroke-miterlimit="10" points="149.425,20.201 243.415,20.201 
	243.415,7.639 "/>
</svg>
