<?xml version="1.0" encoding="utf-8"?>
<!-- Generator: Adobe Illustrator 16.0.0, SVG Export Plug-In . SVG Version: 6.00 Build 0)  -->
<!DOCTYPE svg PUBLIC "-//W3C//DTD SVG 1.1//EN" "http://www.w3.org/Graphics/SVG/1.1/DTD/svg11.dtd">
<svg version="1.1" id="Layer_1" xmlns="http://www.w3.org/2000/svg" xmlns:xlink="http://www.w3.org/1999/xlink" x="0px" y="0px"
	 width="248.118px" height="80px" viewBox="0 0 248.118 80" enable-background="new 0 0 248.118 80" xml:space="preserve">
<g>
	<path d="M0.079,43.216c-0.08-0.133-0.093-0.32-0.04-0.56v-0.12c0-0.533,0.333-0.746,1-0.64c0.56,0.106,1.053,0.16,1.48,0.16
		c0.106,0,0.246,0.034,0.42,0.1c0.173,0.067,0.273,0.1,0.3,0.1c0.053,0,0.146-0.066,0.28-0.2c0.053,0,0.34,0.054,0.86,0.16
		c0.52,0.107,0.966,0.134,1.34,0.08c0.24-0.053,0.453,0,0.64,0.16l0.08,0.08c0.266-0.133,0.64-0.16,1.12-0.08
		c0.347,0.054,0.653,0.08,0.92,0.08c0.266,0,0.46,0,0.58,0c0.12,0,0.22,0.014,0.3,0.04l0.52-0.08c0.08,0,0.386,0.027,0.92,0.08
		c0.533,0.054,0.893,0.067,1.08,0.04c0.24-0.026,0.893-0.04,1.96-0.04c0.08,0,0.333-0.026,0.76-0.08
		c0.426-0.053,0.707-0.066,0.84-0.04c0.24,0,0.506-0.013,0.8-0.04c0.4-0.026,0.893-0.04,1.48-0.04c0.213,0,0.586-0.026,1.12-0.08
		c0.533-0.053,0.813-0.08,0.84-0.08c0.026,0,0.227-0.026,0.6-0.08c0.24-0.053,0.513-0.08,0.82-0.08s0.5-0.013,0.58-0.04l0.12-0.04
		c0.24,0.027,0.52,0.027,0.84,0c0.187-0.106,0.533-0.133,1.04-0.08c0.293,0.054,0.48,0.187,0.56,0.4s0.053,0.454-0.08,0.72
		l-0.04,0.12v0.04c0.08,0.32,0.066,0.614-0.04,0.88l-0.04,0.08c0.053,0.16,0.04,0.374-0.04,0.64c0.133,0.4,0.053,0.687-0.24,0.86
		c-0.294,0.174-0.574,0.207-0.84,0.1c-0.187-0.106-0.534-0.213-1.04-0.32c-0.027,0-0.14-0.02-0.34-0.06
		c-0.2-0.04-0.367-0.073-0.5-0.1c-0.027,0-0.066-0.006-0.12-0.02c-0.054-0.013-0.127-0.026-0.22-0.04
		c-0.094-0.013-0.18-0.02-0.26-0.02c-0.054-0.133-0.054-0.24,0-0.32h-1c-0.134,0-0.354-0.046-0.66-0.14
		c-0.307-0.093-0.5-0.14-0.58-0.14c-0.107,0-0.187,0.014-0.24,0.04c-0.107,0-0.287-0.04-0.54-0.12c-0.254-0.08-0.407-0.12-0.46-0.12
		c-0.32,0-0.614-0.013-0.88-0.04c-0.454,0.054-1.014,0.054-1.68,0c-0.054,0.027-0.12,0.047-0.2,0.06
		c-0.08,0.014-0.147,0.02-0.2,0.02c-0.027,0.267,0.013,0.747,0.12,1.44c-0.16,0.16-0.227,0.253-0.2,0.28
		c0.026,0.027,0.053,0.08,0.08,0.16c0.026,0.08,0.04,0.134,0.04,0.16c0.026,0.187,0.026,0.414,0,0.68
		c-0.16,0.427-0.213,0.747-0.16,0.96c0.053,0.107,0.08,0.187,0.08,0.24c0.133-0.4,0.253-0.747,0.36-1.04
		c-0.4,1.6-0.6,2.707-0.6,3.32c-0.054,1.334-0.014,2.267,0.12,2.8c0.053,0.4,0,0.774-0.16,1.12c0.026,0.454,0.066,1.014,0.12,1.68
		c-0.054,1.36-0.067,2.08-0.04,2.16c0.026,0.347,0.026,0.854,0,1.52c-0.027,0.027-0.067,0.08-0.12,0.16c0,0.054,0.08,0.08,0.24,0.08
		c0.053,0.347,0.04,1.04-0.04,2.08c0.16,1.067,0.28,1.734,0.36,2c0.133,0.24,0.2,0.907,0.2,2c0.026,0.134-0.02,0.24-0.14,0.32
		s-0.287,0.12-0.5,0.12h-1.96c-0.374-0.053-0.774-0.053-1.2,0c-0.4,0.08-0.693-0.053-0.88-0.4c0-0.025,0.013-0.1,0.04-0.22
		c0.026-0.12,0.066-0.333,0.12-0.64c0.053-0.307,0.106-0.606,0.16-0.9c0.08-0.586,0.12-0.92,0.12-1
		c-0.027-0.346,0.053-0.653,0.24-0.92c0.08-0.133,0.04-0.586-0.12-1.36c-0.027-0.106,0.013-0.426,0.12-0.96
		c0.106-0.533,0.16-0.88,0.16-1.04c0-0.266-0.04-0.493-0.12-0.68c-0.16-0.32-0.174-0.626-0.04-0.92l0.04-0.08
		c0-0.346,0.013-0.666,0.04-0.96c0.08-0.826,0.066-1.44-0.04-1.84c0.08-0.213,0.093-0.56,0.04-1.04
		c-0.107-0.187-0.12-0.426-0.04-0.72c0.106-0.32,0.16-0.613,0.16-0.88c0-0.16-0.007-0.306-0.02-0.44
		c-0.014-0.133-0.02-0.24-0.02-0.32c0-0.08,0-0.187,0-0.32c0-0.053-0.027-0.586-0.08-1.6c-0.24-0.24-0.227-0.573,0.04-1
		c-0.027,0-0.04,0.014-0.04,0.04c-0.187-0.8-0.24-1.293-0.16-1.48l-0.04-1.48c0-0.72-0.054-1.093-0.16-1.12
		c-0.934-0.133-1.907-0.013-2.92,0.36c-0.24-0.133-0.747-0.146-1.52-0.04l-1.16,0.12c-0.027-0.026-0.134,0.014-0.32,0.12
		c-0.16,0.08-0.293,0.12-0.4,0.12l-0.32-0.08c-0.054-0.026-0.2,0.027-0.44,0.16c-0.16,0.24-0.414,0.347-0.76,0.32
		c-0.134-0.026-0.42,0.034-0.86,0.18c-0.44,0.147-0.7,0.22-0.78,0.22c-0.24,0-0.426-0.146-0.56-0.44c-0.106-0.24-0.106-0.493,0-0.76
		c0.08-0.133,0.094-0.373,0.04-0.72C0.039,43.59,0.026,43.35,0.079,43.216z"/>
	<path d="M29.199,43.696c0.026-0.026,0.053-0.04,0.08-0.04c0.026,0.187,0.04,0.387,0.04,0.6c0,0.214-0.067,0.614-0.2,1.2
		c0.053,0.374,0.08,0.76,0.08,1.16v1.24c0,0.106-0.02,0.26-0.06,0.46c-0.04,0.2-0.06,0.313-0.06,0.34c0,0.027,0.026,0.12,0.08,0.28
		c0.053,0.134,0.053,0.254,0,0.36c-0.134,1.04-0.147,1.827-0.04,2.36c-0.054,0.4-0.067,0.787-0.04,1.16v0.04
		c0.053,0.16,0,0.374-0.16,0.64v0.04c0.053-0.053,0.6-0.48,1.64-1.28c0.56-0.4,1.16-0.733,1.8-1c0.106,0,0.313-0.053,0.62-0.16
		c0.307-0.106,0.513-0.16,0.62-0.16c0.026,0,0.12,0.027,0.28,0.08c0.08-0.026,0.2-0.04,0.36-0.04l0.28-0.2
		c0.213,0.134,0.413,0.2,0.6,0.2c0.346,0,0.6,0.027,0.76,0.08c0.266,0.08,0.706,0.174,1.32,0.28c0.48,0.08,0.866,0.28,1.16,0.6
		l0.08,0.08c0.053,0.027,0.133,0.074,0.24,0.14c0.106,0.067,0.213,0.14,0.32,0.22c0.24,0.133,0.466,0.467,0.68,1
		c0.053,0.187,0.226,0.494,0.52,0.92c0.213,0.374,0.32,0.76,0.32,1.16c-0.027,0.187-0.067,0.454-0.12,0.8
		c-0.027,0.32,0.013,0.574,0.12,0.76c-0.054,0.587-0.08,0.907-0.08,0.96v1.16c-0.054,0.107-0.047,0.354,0.02,0.74
		c0.066,0.387,0.1,0.62,0.1,0.7c-0.027,0.187-0.04,0.4-0.04,0.64c0,0.134,0.02,0.28,0.06,0.44s0.06,0.254,0.06,0.28v0.16
		c0.08,0.267,0.12,0.694,0.12,1.28c0,0.08-0.014,0.16-0.04,0.24c0,0.134,0.006,0.26,0.02,0.38c0.013,0.12,0.02,0.207,0.02,0.26
		l0.04,0.12l0.08,1.24v0.08l0.04,0.04c0.053,0.08,0.093,0.254,0.12,0.52c-0.293,0.374-0.547,0.561-0.76,0.561
		c-0.027,0-0.147-0.027-0.36-0.08c-0.16-0.027-0.267-0.04-0.32-0.04h-1.08l-0.08,0.04c-0.08,0-0.18,0.006-0.3,0.02
		s-0.247,0.021-0.38,0.021c-0.32,0.053-0.547-0.027-0.68-0.24c-0.107-0.16-0.12-0.36-0.04-0.6l-0.04-0.08v-0.2
		c0-0.106,0.04-0.48,0.12-1.12c0.08-0.453,0.066-0.813-0.04-1.08c-0.027-0.373,0.04-0.96,0.2-1.76c0.026-0.026,0.04-0.106,0.04-0.24
		l-0.04-0.6v-2.48c0-0.133-0.014-0.32-0.04-0.56c-0.027-0.24-0.067-0.493-0.12-0.76c-0.054-0.266-0.08-0.426-0.08-0.48
		c-0.027-0.266-0.146-0.72-0.36-1.36c-0.027-0.053-0.074-0.133-0.14-0.24c-0.067-0.106-0.12-0.186-0.16-0.24
		c-0.04-0.053-0.087-0.113-0.14-0.18c-0.054-0.066-0.127-0.12-0.22-0.16c-0.094-0.04-0.193-0.073-0.3-0.1
		c-0.134-0.426-0.24-0.653-0.32-0.68c-0.667-0.24-1.2-0.36-1.6-0.36c-0.24,0-0.6,0.027-1.08,0.08c-0.187,0.027-0.56,0.134-1.12,0.32
		c-0.347,0.134-0.694,0.427-1.04,0.88c-0.827,0.347-1.267,0.854-1.32,1.52c0.026,0.16,0,0.414-0.08,0.76
		c-0.08,0.427-0.12,0.68-0.12,0.76c-0.027,0.374-0.014,0.827,0.04,1.36c0.053,0.294,0.013,0.534-0.12,0.72l0.08-0.08l-0.08,0.08
		l0.08,0.08c0.133,0.187,0.146,0.414,0.04,0.68h-0.04h0.04c0.213,0.214,0.253,0.454,0.12,0.72c-0.08,0.214-0.08,0.507,0,0.88
		c0.133,0.454,0.173,0.76,0.12,0.92c0,0.027-0.007,0.074-0.02,0.14c-0.014,0.067-0.027,0.147-0.04,0.24
		c-0.014,0.094-0.02,0.193-0.02,0.3l-0.04,0.08c0.026,0.027,0.053,0.054,0.08,0.08c0.026,0.027,0.046,0.047,0.06,0.06
		c0.013,0.014,0.026,0.034,0.04,0.06c0.013,0.027,0.02,0.06,0.02,0.1s0.006,0.08,0.02,0.12c0.013,0.04,0.02,0.087,0.02,0.14
		c0,0.054,0,0.12,0,0.2c0,0.08,0.006,0.16,0.02,0.24c0.013,0.08,0.026,0.187,0.04,0.32c0.013,0.134,0.02,0.267,0.02,0.399
		c0.106,0.24,0.16,0.467,0.16,0.681c0,0.373-0.24,0.572-0.72,0.6c-0.427,0.026-0.8,0.026-1.12,0c-0.214,0.053-0.56,0.053-1.04,0
		c-0.134-0.027-0.254-0.04-0.36-0.04c-0.107,0.026-0.24,0.04-0.4,0.04c-0.534,0-0.693-0.427-0.48-1.28
		c0.16-0.773,0.227-1.24,0.2-1.4c0-0.053,0.026-0.16,0.08-0.32c-0.134-0.213-0.16-0.426-0.08-0.64c-0.107-0.266-0.12-0.52-0.04-0.76
		c0.106-0.293,0.146-0.533,0.12-0.72c0-0.08-0.007-0.153-0.02-0.22c-0.014-0.066-0.02-0.126-0.02-0.18c0-0.053-0.007-0.1-0.02-0.14
		c-0.014-0.04-0.02-0.073-0.02-0.1v-0.04c0.106-1.066,0.133-1.747,0.08-2.04c-0.107-0.48-0.08-0.906,0.08-1.28
		c-0.027-0.106-0.014-0.653,0.04-1.64c-0.027-0.133-0.04-0.266-0.04-0.4v-1.96c-0.027-0.453-0.027-1.093,0-1.92
		c0.08-0.266,0.106-0.4,0.08-0.4l-0.04-0.04c-0.187-0.187-0.267-0.533-0.24-1.04c0.053-0.64,0.066-1.253,0.04-1.84
		c-0.027-0.213,0.013-0.493,0.12-0.84c0.026-0.32,0-0.893-0.08-1.72c-0.134-0.32-0.174-0.586-0.12-0.8c0.026-0.16,0-0.693-0.08-1.6
		c-0.027-0.693-0.027-1.253,0-1.68c-0.134-0.213-0.253-0.573-0.36-1.08c0-0.186,0.106-0.426,0.32-0.72c0.213,0,0.64-0.046,1.28-0.14
		c0.64-0.093,1.04-0.14,1.2-0.14c0.613,0,1.046,0.08,1.3,0.24c0.253,0.16,0.38,0.467,0.38,0.92c0,0.454-0.107,0.894-0.32,1.32
		l-0.08,0.16c0.053,0.267,0.08,0.52,0.08,0.76l-0.04,0.12C29.385,43.323,29.333,43.51,29.199,43.696z"/>
	<path d="M59.119,61.656c0.106-0.053,0.213-0.08,0.32-0.08c0.293,0,0.506,0.06,0.64,0.18c0.133,0.12,0.186,0.313,0.16,0.58
		c-0.08,0.72-0.614,1.494-1.6,2.32c-0.267,0.267-0.614,0.56-1.04,0.88c-0.08,0.08-0.134,0.16-0.16,0.24
		c-0.454,0.374-1.494,0.773-3.12,1.2c-0.187,0.105-0.427,0.146-0.72,0.12h-0.08c-0.294,0.079-0.574,0.065-0.84-0.04l0.08-0.08h-0.68
		l0.08,0.08c-0.294,0.053-0.494,0.053-0.6,0c-1.44-0.188-2.467-0.36-3.08-0.521c-0.987-0.293-1.894-0.813-2.72-1.56
		c-0.16-0.267-0.36-0.521-0.6-0.76c-0.4-0.4-0.627-0.64-0.68-0.72l-1.08-2.64c-0.134-0.347-0.2-0.707-0.2-1.08v-0.44
		c0-1.12,0.28-1.96,0.84-2.52c0.053-0.106,0.08-0.213,0.08-0.32c0.106-0.826,0.826-1.84,2.16-3.04c0.453-0.4,1.08-0.773,1.88-1.12
		c0.106-0.133,0.273-0.247,0.5-0.34c0.226-0.093,0.42-0.166,0.58-0.22l0.28-0.04c0.293-0.266,0.706-0.333,1.24-0.2
		c0.453-0.106,1.173-0.16,2.16-0.16c0.533-0.026,1.266,0.146,2.2,0.52c0.88,0.213,1.693,0.6,2.44,1.16
		c0.906,0.667,1.426,1.374,1.56,2.12l0.04,0.2c0.053,0.133,0.093,0.24,0.12,0.32l0.08,0.12c0.106,0.107,0.16,0.267,0.16,0.48
		c0,0.187-0.04,0.36-0.12,0.52l-0.08,0.2c-0.027,0.16-0.08,0.294-0.16,0.4c-0.08,0.107-0.207,0.18-0.38,0.22
		c-0.174,0.04-0.293,0.067-0.36,0.08c-0.067,0.014-0.234,0.027-0.5,0.04c-0.267,0.014-0.414,0.02-0.44,0.02
		c-0.72,0.134-2.2,0.2-4.44,0.2c-0.16-0.08-0.414-0.093-0.76-0.04c-0.427,0.054-0.68,0.067-0.76,0.04
		c-0.187,0.027-1.387,0.027-3.6,0c-0.16-0.026-0.267-0.04-0.32-0.04c-0.107,0.054-0.18,0.22-0.22,0.5c-0.04,0.28-0.1,0.447-0.18,0.5
		v0.24c-0.027,0.08-0.04,0.16-0.04,0.24v0.48c0,1.173,0.106,1.867,0.32,2.08c0.346,0.187,0.48,0.4,0.4,0.64
		c0.187,0.187,0.28,0.427,0.28,0.72v0.08l0.04,0.04c0.16,0.107,0.347,0.32,0.56,0.64l0.08,0.12c0.026,0.08,0.08,0.16,0.16,0.24
		c0.186,0,0.526,0.147,1.02,0.44c0.493,0.294,0.846,0.453,1.06,0.479c0.053,0.054,0.12,0.067,0.2,0.04
		c0.453-0.106,0.826-0.08,1.12,0.08c0.293-0.053,0.613-0.066,0.96-0.04c1.2-0.399,2.013-0.906,2.44-1.52
		c0.026-0.026,0.28-0.253,0.76-0.68c0.08-0.08,0.2-0.426,0.36-1.04c0.106-0.453,0.36-0.667,0.76-0.64
		c0.373-0.053,0.853-0.04,1.44,0.04V61.656z M47.878,55.816c0.187,0.134,0.6,0.227,1.24,0.28c0.613,0.027,1.026,0.067,1.24,0.12
		c0.373,0.054,0.693,0.08,0.96,0.08c1.227,0,2.64-0.227,4.24-0.68v-0.04l-0.08-0.12c-0.107-0.133-0.16-0.32-0.16-0.56
		c-0.054-0.08-0.12-0.2-0.2-0.36c0.026-0.026,0.053-0.04,0.08-0.04c0.026,0,0.053-0.013,0.08-0.04l-0.52-0.32
		c0-0.08-0.08-0.106-0.24-0.08l-0.64-0.24c-0.08-0.4-0.507-0.6-1.28-0.6c-0.107,0-0.24,0.027-0.4,0.08
		c-0.32-0.16-0.52-0.24-0.6-0.24c-0.934,0.214-1.44,0.32-1.52,0.32l-0.16,0.08c-0.027,0.027-0.094,0.047-0.2,0.06
		c-0.106,0.014-0.207,0.047-0.3,0.1c-0.094,0.054-0.18,0.16-0.26,0.32c-0.107,0.214-0.24,0.374-0.4,0.48l0.12-0.08
		c-0.48,0.454-0.827,0.947-1.04,1.48H47.878z M48.758,54.416l-0.04,0.04h-0.04L48.758,54.416z"/>
	<path d="M94.038,60.536c0.293,0.294,0.48,0.454,0.56,0.48l0.08,0.04c0.506,0.347,0.92,0.614,1.24,0.8c0.24,0.4,0.48,0.68,0.72,0.84
		c0.533,0.347,0.8,0.534,0.8,0.56c0.4,0.32,0.68,0.48,0.84,0.48c0.854,0.694,1.6,1.387,2.24,2.08c0.16,0.374,0.053,0.64-0.32,0.8
		c-0.027,0.027-0.347,0.04-0.96,0.04c-0.054,0-0.213-0.026-0.48-0.08c-0.107-0.026-0.28,0-0.52,0.08h-1.52
		c-0.56,0-0.96-0.173-1.2-0.52c-0.294-0.507-0.894-1.134-1.8-1.88c-0.027-0.08-0.08-0.16-0.16-0.24l-0.08-0.04l-0.08-0.08
		c-0.107-0.213-0.333-0.48-0.68-0.8c-0.24-0.106-0.574-0.393-1-0.86c-0.427-0.466-0.72-0.74-0.88-0.82
		c-0.214-0.133-0.56-0.453-1.04-0.96c-0.027-0.053-0.207-0.193-0.54-0.42c-0.333-0.226-0.567-0.433-0.7-0.62
		c-0.507-0.453-1.16-1.066-1.96-1.84c-0.214-0.106-0.494-0.16-0.84-0.16h-0.36c-0.08-0.026-0.2-0.04-0.36-0.04
		c-0.187,0-0.28,0.054-0.28,0.16c0.053,0.48,0.053,0.787,0,0.92c-0.054,0.16-0.08,0.267-0.08,0.32l0.08,0.88
		c0.053,0.347,0.053,0.627,0,0.84c-0.054,0.134-0.027,0.227,0.08,0.28c0.08,0.16,0.093,0.414,0.04,0.76
		c-0.027,0.24-0.04,0.427-0.04,0.56c0.16,0.16,0.213,0.347,0.16,0.56c-0.08,0.267-0.094,0.454-0.04,0.56
		c0.133,0.347,0.2,0.56,0.2,0.64c0,0.56,0.12,1.16,0.36,1.8c0.053,0.214,0.08,0.36,0.08,0.44c0,0.373-0.32,0.56-0.96,0.56h-1.28
		c-0.054,0-0.254,0-0.6,0l-0.52,0.04c-0.427,0-0.773-0.12-1.04-0.36c-0.08-0.266,0-0.626,0.24-1.08c-0.08,0-0.12-0.065-0.12-0.199
		c-0.027-0.187,0-0.414,0.08-0.68c0.08-0.267,0.12-0.414,0.12-0.44c0-0.213,0.013-0.493,0.04-0.84c0.026-0.346,0.04-0.746,0.04-1.2
		c0-0.213,0.013-0.68,0.04-1.4c0.026-0.72,0.04-1.173,0.04-1.36c0-0.133-0.067-0.36-0.2-0.68l0.32-0.2v-0.08
		c-0.054-0.106-0.08-0.2-0.08-0.28c-0.027-0.133-0.014-0.38,0.04-0.74c0.053-0.36,0.08-0.553,0.08-0.58
		c0-0.026-0.027-0.173-0.08-0.44c-0.054-0.133-0.054-0.306,0-0.52c0.026-0.026,0.04-0.08,0.04-0.16v-0.08
		c0-0.08-0.027-0.52-0.08-1.32c-0.054-0.373-0.08-0.6-0.08-0.68v-1.08v-2.4c0-0.053-0.027-0.26-0.08-0.62
		c-0.054-0.36-0.067-0.633-0.04-0.82c0.08-0.24,0.093-0.506,0.04-0.8c-0.054-0.426-0.08-0.693-0.08-0.8c0.026-0.693,0-1.2-0.08-1.52
		c0.026-0.08,0.04-0.213,0.04-0.4c0-0.133-0.04-0.426-0.12-0.88c-0.08-0.453-0.12-0.733-0.12-0.84c0-0.48,0.24-0.786,0.72-0.92
		c1.146-0.4,1.973-0.586,2.48-0.56c0.613,0.027,0.973-0.053,1.08-0.24c0.48,0.16,0.786,0.227,0.92,0.2
		c0.16-0.026,0.4-0.093,0.72-0.2c0.506-0.053,0.853-0.066,1.04-0.04c0.213,0,0.586,0.034,1.12,0.1c0.533,0.067,0.854,0.1,0.96,0.1
		c0.24,0,0.493,0.014,0.76,0.04c0.266,0.267,0.4,0.414,0.4,0.44c0.213-0.133,0.48-0.12,0.8,0.04c0.48,0,1.066,0.254,1.76,0.76
		c0.346,0.134,0.72,0.374,1.12,0.72l0.04,0.04c0.16,0.054,0.533,0.44,1.12,1.16c0.133,0.08,0.227,0.2,0.28,0.36
		c0.053,0.16,0.086,0.307,0.1,0.44c0.013,0.134,0.033,0.2,0.06,0.2c0.48,0.427,0.72,1.16,0.72,2.2c0,1.334-0.187,2.307-0.56,2.92
		c-0.027,0.027-0.08,0.207-0.16,0.54c-0.08,0.334-0.214,0.567-0.4,0.7c-0.054,0.027-0.253,0.347-0.6,0.96
		c-0.454,0.667-0.854,1.094-1.2,1.28c-0.214,0.134-0.414,0.307-0.6,0.52l-0.12,0.16c-0.134,0.16-0.32,0.267-0.56,0.32
		c-0.027,0-0.08,0.014-0.16,0.04c-0.08,0.027-0.134,0.054-0.16,0.08l-0.04,0.04c-0.08,0.134-0.354,0.3-0.82,0.5
		c-0.467,0.2-0.7,0.327-0.7,0.38c-0.267,0.214-0.614,0.36-1.04,0.44c0.053,0.027,0.12,0.074,0.2,0.14
		c0.08,0.067,0.18,0.147,0.3,0.24c0.12,0.094,0.22,0.18,0.3,0.26c0.373,0.454,0.973,1.094,1.8,1.92l0.36,0.24
		c0.187,0.134,0.586,0.467,1.2,1L94.038,60.536z M93.598,48.816l-0.04-0.08c-0.107-0.187-0.12-0.373-0.04-0.56l0.16-0.16
		c0-0.373-0.24-1.013-0.72-1.92c-0.134-0.4-0.447-0.806-0.94-1.22c-0.494-0.414-0.767-0.66-0.82-0.74l-0.08-0.12
		c0-0.026-0.04-0.04-0.12-0.04c-0.134,0-0.4-0.093-0.8-0.28c-0.4-0.187-0.72-0.28-0.96-0.28c-0.134,0-0.44-0.013-0.92-0.04
		c-0.48-0.026-0.773-0.04-0.88-0.04c-0.56,0-1.08,0.107-1.56,0.32c-0.187,0.08-0.414,0.254-0.68,0.52
		c-0.054,0.054-0.094,0.32-0.12,0.8c-0.027,0.507-0.027,0.814,0,0.92c0.053,0.427,0,0.787-0.16,1.08l-0.12,1.28
		c0.053,0.4,0.026,0.894-0.08,1.48v0.08l0.04,0.04c0.08,0.16,0.12,0.333,0.12,0.52c0,0.08-0.027,0.26-0.08,0.54
		c-0.054,0.28-0.08,0.474-0.08,0.58c0,0.107,0.013,0.2,0.04,0.28l0.08,0.48c0.08,0.48,0.08,0.813,0,1
		c0.026,0.08,0.013,0.374-0.04,0.88c-0.08,0.187-0.054,0.52,0.08,1c0.266,0.187,0.44,0.307,0.52,0.36
		c0.106,0.08,0.48,0.12,1.12,0.12c0.053,0,0.2-0.04,0.44-0.12c0.24-0.08,0.413-0.106,0.52-0.08l0.2,0.04
		c0.64,0.08,1.106-0.066,1.4-0.44c0.533,0.134,0.853,0.134,0.96,0l0.12-0.08c0.16-0.106,0.56-0.373,1.2-0.8
		c0.346-0.293,0.746-0.733,1.2-1.32l0.04-0.16c0.053-0.266,0.173-0.466,0.36-0.6c0.08-0.026,0.173-0.066,0.28-0.12
		c-0.054-0.293-0.014-0.666,0.12-1.12c0.053-0.16,0.1-0.326,0.14-0.5c0.04-0.173,0.073-0.313,0.1-0.42
		c0.026-0.106,0.04-0.173,0.04-0.2C93.691,49.216,93.678,48.923,93.598,48.816z"/>
	<path d="M101.718,55.656c-0.027-0.16,0.026-0.306,0.16-0.44c0.826-1.146,2.12-2.12,3.88-2.92c1.386-0.64,2.573-0.96,3.56-0.96
		c0.186,0,0.44,0.027,0.76,0.08c0.426-0.106,0.826-0.08,1.2,0.08c2.533,0.214,4.56,1.2,6.08,2.96c0.32,0.187,0.52,0.494,0.6,0.92
		c0,0.054,0.066,0.146,0.2,0.28c0.56,0.507,0.84,1.44,0.84,2.8v0.2c0,0.187-0.047,0.587-0.14,1.2c-0.094,0.614-0.14,0.974-0.14,1.08
		c-0.054,0.507-0.16,0.84-0.32,1v0.04c-0.107,0.347-0.267,0.587-0.48,0.72c-0.107,0.587-0.88,1.427-2.32,2.52
		c-1.04,0.801-2.667,1.374-4.88,1.721c-0.374,0.08-0.747,0.12-1.12,0.12c-0.854,0-1.934-0.214-3.24-0.641
		c-0.16-0.053-0.467-0.053-0.92,0c-0.16-0.106-0.56-0.373-1.2-0.8c-1.334-1.04-2.347-1.933-3.04-2.68
		c-0.027-0.106-0.04-0.226-0.04-0.36l-0.24-0.4v-0.08c-0.24-0.4-0.4-0.96-0.48-1.68c-0.027-0.16-0.04-0.413-0.04-0.76
		c0-1.28,0.36-2.573,1.08-3.88L101.718,55.656z M114.878,57.256c-0.214-0.133-0.28-0.346-0.2-0.64c-0.08-0.293-0.214-0.546-0.4-0.76
		c-0.054-0.053-0.147-0.253-0.28-0.6c-0.347-0.08-0.667-0.44-0.96-1.08c-0.293-0.4-0.56-0.6-0.8-0.6
		c-0.454-0.373-1.2-0.56-2.24-0.56c-2.08,0-3.6,0.68-4.56,2.04c-0.027,0.187-0.187,0.44-0.48,0.76c0,0.08-0.027,0.22-0.08,0.42
		c-0.054,0.2-0.08,0.354-0.08,0.46c-0.054,0.374-0.174,0.64-0.36,0.8c-0.027,0.187-0.04,0.6-0.04,1.24l-0.16,0.64
		c0.053,0.187,0.12,0.614,0.2,1.28c0.053,0.56,0.2,0.907,0.44,1.04c0.026,0.08,0.066,0.247,0.12,0.5
		c0.053,0.254,0.093,0.44,0.12,0.56c0.026,0.12,0.093,0.26,0.2,0.42c0.106,0.16,0.226,0.28,0.36,0.36
		c0.026,0.027,0.066,0.067,0.12,0.12c0.053,0.054,0.133,0.14,0.24,0.26c0.106,0.12,0.227,0.26,0.36,0.42
		c0.96,0.614,1.933,0.973,2.92,1.08c0.533,0.054,1.2-0.04,2-0.279c0.693-0.187,1.293-0.44,1.8-0.76c0.026-0.106,0.12-0.24,0.28-0.4
		l0.08-0.48c0.827-0.16,1.253-0.573,1.28-1.24c-0.054-0.16-0.08-0.266-0.08-0.32c0-0.053,0.046-0.16,0.14-0.32
		c0.093-0.16,0.126-0.293,0.1-0.4c0-0.133,0.046-0.4,0.14-0.8c0.093-0.4,0.14-0.64,0.14-0.72v-0.72
		c0.053-0.213,0.013-0.506-0.12-0.88C114.944,57.723,114.878,57.443,114.878,57.256z"/>
	<path d="M120.197,54.216c-0.16-0.106-0.374-0.386-0.64-0.84l-0.16-0.2c-0.186-0.213-0.28-0.426-0.28-0.64c0-0.4,0.333-0.586,1-0.56
		c0.266,0,0.426-0.013,0.48-0.04c0.266,0.027,0.866,0.04,1.8,0.04c0.187-0.026,0.36-0.04,0.52-0.04c0.133,0,0.26,0.054,0.38,0.16
		c0.12,0.107,0.206,0.214,0.26,0.32c0.053,0.107,0.126,0.274,0.22,0.5c0.093,0.227,0.153,0.38,0.18,0.46
		c0.026,0.027,0.227,0.48,0.6,1.36c0.16,0.454,0.453,0.907,0.88,1.36l0.04,0.04l0.48,0.48c-0.534-0.08-0.8-0.16-0.8-0.24
		c0-0.053,0.093-0.16,0.28-0.32l0.04,0.08c0,0.027,0.187,0.6,0.56,1.72c0.133,0.213,0.507,0.907,1.12,2.08
		c0.186,0.374,0.467,0.974,0.84,1.8c0.346,0.107,0.52,0.333,0.52,0.68v0.32l0.32,0.72c0.24,0,0.641-0.853,1.2-2.56
		c0.319-0.906,0.479-1.4,0.479-1.48c0-0.186-0.014-0.32-0.039-0.4c0.24-0.16,0.466-0.533,0.68-1.12
		c0.213-0.533,0.373-0.946,0.48-1.24c0.025-0.346,0.213-0.96,0.56-1.84c0.399-0.586,0.601-1.267,0.601-2.04
		c0-0.32,0.133-0.573,0.399-0.76c0.133-0.08,0.306-0.106,0.521-0.08c0.266,0.027,0.439,0.027,0.52,0c0.266-0.053,0.546-0.053,0.84,0
		c0.48,0.054,0.732,0.08,0.76,0.08c0.586-0.053,0.946-0.026,1.08,0.08c0.267,0.214,0.174,0.667-0.279,1.36
		c-0.027,0.027-0.127,0.18-0.301,0.46c-0.174,0.28-0.326,0.54-0.46,0.78c0,0.027-0.087,0.147-0.26,0.36
		c-0.174,0.214-0.261,0.347-0.261,0.4c-0.079,0.347-0.213,0.534-0.399,0.56l-0.12,0.24c-0.08,0.16-0.254,0.46-0.52,0.9
		c-0.268,0.44-0.48,0.794-0.641,1.06c-0.053,0.293-0.24,0.734-0.56,1.32c-0.267,0.347-0.413,0.574-0.44,0.68
		c-0.16,0.293-0.52,1-1.08,2.12c-0.24,0.534-0.627,1.36-1.16,2.48c-0.373,0.64-0.812,1.587-1.319,2.84
		c-0.08,0.106-0.214,0.413-0.399,0.92c-0.027,0.026-0.24,0.48-0.641,1.36c-0.48,1.146-0.721,1.973-0.721,2.479
		c-0.133,0.134-0.319,0.561-0.559,1.28c-0.24,0.693-0.428,1.213-0.561,1.56c-0.027,0.187-0.054,0.467-0.08,0.841
		c-0.027,0.346-0.174,0.56-0.44,0.64c-0.08,0.026-0.52,0-1.32-0.08c-0.213,0.08-0.56,0.12-1.04,0.12h-0.24
		c-0.08,0.026-0.16,0.04-0.24,0.04c-0.854,0-1.28-0.214-1.28-0.641c0-0.239,0.173-0.493,0.52-0.76
		c0.026-0.054,0.113-0.16,0.26-0.319c0.146-0.16,0.273-0.308,0.38-0.44c0.826-1.066,1.333-1.96,1.52-2.68
		c0.053-0.188,0.2-0.407,0.44-0.66c0.24-0.254,0.373-0.42,0.4-0.5c0.026-0.027,0.066-0.127,0.12-0.3
		c0.053-0.174,0.12-0.314,0.2-0.42c0.08-0.107,0.187-0.188,0.32-0.24v-0.04c0-0.027,0.013-0.067,0.04-0.12
		c0.026-0.054,0.04-0.094,0.04-0.12c0.213-0.4,0.44-0.907,0.679-1.52c0.427-0.747,0.641-1.388,0.641-1.92
		c-0.48-0.881-0.774-1.44-0.88-1.681l-0.04-0.04c-0.267-0.106-0.427-0.4-0.48-0.88c-0.027-0.133-0.267-0.586-0.72-1.36
		c-0.374-0.72-0.6-1.12-0.68-1.2l-0.04-0.04l-0.08-0.04c-0.294-0.213-0.48-0.453-0.56-0.72c-0.107-0.373-0.2-0.653-0.28-0.84
		c-0.134-0.293-0.414-0.72-0.84-1.28c-0.08-0.186-0.2-0.426-0.36-0.72l-0.08-0.04c-0.187-0.106-0.347-0.28-0.48-0.52
		c-0.214-0.32-0.307-0.573-0.28-0.76l-0.08-0.08c-0.267-0.24-0.48-0.573-0.64-1C120.343,54.803,120.197,54.563,120.197,54.216z"/>
	<path d="M151.276,64.937c0.213,0.16,0.293,0.427,0.24,0.8c0.213,0.56,0.107,0.867-0.32,0.92h-0.92
		c-0.533,0.133-0.879,0.187-1.039,0.16c-0.48-0.054-0.76-0.094-0.84-0.12c-0.32-0.08-0.494-0.28-0.521-0.6v-0.28
		c0-0.16,0.055-0.253,0.16-0.28v0.04l0.16-0.64c0.107,0.08,0.16,0.174,0.16,0.279c0,0.16-0.199,0.334-0.6,0.521
		c-0.268,0.134-0.506,0.267-0.721,0.4c-0.08,0-0.359,0.199-0.84,0.6c-0.025,0-0.066-0.014-0.119-0.04
		c-0.055-0.027-0.094-0.04-0.121-0.04h-0.08c-0.158,0.026-0.453,0.066-0.879,0.12c-0.268,0.053-0.48,0.08-0.641,0.08
		c-0.346,0.106-1.053,0.173-2.119,0.2c-0.107,0-0.295-0.027-0.561-0.08c-0.268-0.054-0.426-0.08-0.48-0.08
		c-0.238,0.053-0.453-0.014-0.639-0.2l-0.48,0.08c-0.453,0-1.039-0.333-1.76-1c-0.24-0.16-0.494-0.413-0.76-0.76
		c-0.107-0.187-0.146-0.36-0.12-0.521c-0.214-0.16-0.32-0.453-0.32-0.88c0-0.8,0.187-1.426,0.56-1.88
		c0.16-0.133,0.387-0.36,0.681-0.68c0.347-0.453,0.746-0.746,1.2-0.88c0.506-0.133,0.84-0.24,1-0.32
		c0.4-0.267,0.879-0.386,1.439-0.36c0.053,0,0.359-0.04,0.92-0.12c0.48-0.08,1.119-0.066,1.92,0.04c0.105,0,0.301,0.02,0.58,0.06
		s0.445,0.06,0.5,0.06c0.186-0.026,0.373,0,0.561,0.08l0.08,0.04c0.533,0.134,1,0.307,1.398,0.52
		c-0.08-0.053-0.119-0.133-0.119-0.24v-0.28c-0.027-0.08-0.039-0.226-0.039-0.44v-0.88l-0.08-0.12
		c-0.215-0.506-0.24-0.986-0.08-1.44c-0.055-0.373-0.08-0.747-0.08-1.12c0.025-0.4-0.307-1-1-1.8
		c-0.16-0.187-0.447-0.347-0.861-0.48s-0.646-0.213-0.699-0.24l-0.08-0.08c-0.027-0.026-0.174-0.04-0.439-0.04
		c-0.773,0-1.348,0.174-1.721,0.52c-0.506,0.454-0.801,1.014-0.881,1.68c0,0.054-0.006,0.127-0.02,0.22
		c-0.014,0.094-0.027,0.234-0.039,0.42c-0.014,0.187-0.02,0.347-0.02,0.48c0.078,0.293,0.092,0.614,0.039,0.96
		c-0.055,0.267-0.174,0.414-0.359,0.44c-0.295,0.107-0.693,0.16-1.2,0.16h-1.08c-0.72,0.027-1.08-0.253-1.08-0.84
		c0-0.213,0.054-0.533,0.16-0.96l0.08,0.08c0.026-0.16,0.106-0.4,0.239-0.72c0.027-0.053,0.066-0.16,0.121-0.32
		c0.053-0.16,0.105-0.306,0.16-0.44c0.16-0.48,0.466-0.893,0.92-1.24c0.105-0.106,0.279-0.2,0.52-0.28
		c0.026-0.4,0.333-0.64,0.92-0.72c0.561-0.426,1.119-0.72,1.68-0.88c0.906-0.213,1.533-0.306,1.881-0.28
		c0.346,0.027,0.959,0.107,1.84,0.24h0.279c0.586,0.027,0.986,0.2,1.199,0.52c0.027,0.08,0.24,0.16,0.641,0.24
		c0.826,0.4,1.426,1.027,1.801,1.88c0.318,0.72,0.439,1.307,0.359,1.76c-0.055,0.214-0.027,0.387,0.08,0.52
		c0.24,0.427,0.213,1.347-0.08,2.76c-0.027,0.08-0.014,0.2,0.039,0.36l0.08,0.16c0.055,0.214,0.08,0.36,0.08,0.44
		c0,0.107-0.047,0.32-0.139,0.64c-0.094,0.32-0.141,0.547-0.141,0.68c0,0.32,0.039,0.8,0.119,1.44c0.08,0.347,0.135,0.627,0.16,0.84
		c0.027,0.214,0.055,0.4,0.08,0.56C151.276,64.604,151.303,64.803,151.276,64.937z M144.797,65.057c0.266-0.08,0.492-0.12,0.68-0.12
		c0.08,0,0.279-0.08,0.6-0.24s0.533-0.253,0.641-0.28c0.213-0.213,0.412-0.4,0.6-0.56l0.119-0.08c0.213-0.133,0.32-0.36,0.32-0.68
		c0-0.373-0.174-0.726-0.52-1.06c-0.348-0.333-0.613-0.5-0.801-0.5c-0.24-0.08-0.467-0.173-0.68-0.28
		c-0.08-0.08-0.16-0.12-0.24-0.12c0.027,0-0.014,0.027-0.119,0.08c-0.08,0-0.135,0.014-0.16,0.04
		c-0.135,0.027-0.32,0.014-0.561-0.04l-0.359-0.12c-0.16,0.107-0.574,0.094-1.24-0.04l-0.08,0.08
		c-0.055,0.027-0.154,0.067-0.301,0.12c-0.146,0.054-0.326,0.094-0.539,0.12l-0.121,0.04l-0.639,0.56
		c-0.295,0.294-0.439,0.747-0.439,1.36c0,0.213,0.1,0.474,0.299,0.78c0.199,0.307,0.301,0.474,0.301,0.5
		c0.025,0.054,0.066,0.106,0.119,0.16c0.186,0,0.414,0.094,0.68,0.28c0.107,0.08,0.268,0.094,0.48,0.04h0.119
		C143.624,65.097,144.237,65.083,144.797,65.057z"/>
	<path d="M158.436,46.536c0.186,0.187,0.213,0.494,0.08,0.92c-0.027,0.027-0.041,0.294-0.041,0.8v1.04
		c-0.025,0.347-0.039,0.654-0.039,0.92c0,0.027,0.025,0.2,0.08,0.52c0.08,0.32,0.119,0.507,0.119,0.56c0,0.16-0.02,0.347-0.059,0.56
		c-0.041,0.213-0.088,0.4-0.141,0.56c-0.055,0.16-0.08,0.254-0.08,0.28c-0.027,0.8-0.027,2.014,0,3.64
		c0.053,0.267,0.119,0.48,0.199,0.64c0.055,0.187,0.041,0.44-0.039,0.76c-0.027,0.08-0.041,0.2-0.041,0.36
		c0,0.107,0.021,0.28,0.061,0.52c0.041,0.24,0.061,0.387,0.061,0.44c0,0.107-0.027,0.214-0.08,0.32l-0.041,0.04v0.08
		c0,0.027,0.014,0.167,0.041,0.42c0.025,0.254,0.039,0.447,0.039,0.58c0,0.534,0.041,0.92,0.121,1.16
		c0.08,0.32,0.066,0.574-0.041,0.76l-0.039,0.08c0,0.054,0.119,0.227,0.359,0.52l-0.08,0.08c-0.133,0.187-0.199,0.294-0.199,0.32
		l0.119,0.48c-0.053,0.24-0.053,0.6,0,1.08c0.08,0.479,0.121,0.826,0.121,1.04c0,0.427-0.281,0.64-0.84,0.64h-1
		c-0.027,0-0.121,0.006-0.281,0.02s-0.254,0.021-0.279,0.021c-1.174,0-1.76-0.2-1.76-0.6c0-1.227,0.146-2.067,0.439-2.521
		l0.041-0.08c0.025-0.053,0.012-0.193-0.041-0.42c-0.053-0.226-0.08-0.366-0.08-0.42c0-0.08,0.033-0.3,0.1-0.66
		c0.066-0.36,0.102-0.593,0.102-0.7c0-0.08-0.027-0.233-0.08-0.46c-0.055-0.227-0.08-0.366-0.08-0.42c0-0.213,0.08-0.426,0.24-0.64
		c0.025-0.187,0.012-0.626-0.041-1.32c-0.107-0.266-0.094-0.52,0.041-0.76l0.039-0.12c0.025-0.026-0.039-0.133-0.199-0.32
		c0.16-0.453,0.238-1.093,0.238-1.92c0-1.413-0.014-2.293-0.039-2.64c-0.16-0.213-0.188-0.56-0.08-1.04
		c0.08-0.293,0.119-0.666,0.119-1.12c0-0.746-0.025-1.146-0.078-1.2l-0.041-0.04c-0.107-0.106-0.16-0.24-0.16-0.4
		c0-0.133,0.053-0.36,0.16-0.68c0.08-0.32,0.105-0.573,0.08-0.76c0-0.08-0.02-0.226-0.061-0.44c-0.039-0.213-0.072-0.373-0.1-0.48
		c-0.053-0.346-0.014-0.666,0.121-0.96c0-0.026-0.016-0.053-0.041-0.08l-0.039-0.12c-0.055-0.16-0.088-0.506-0.102-1.04
		c-0.014-0.533-0.033-0.854-0.059-0.96c-0.055-0.32-0.08-0.573-0.08-0.76c0-0.186-0.027-0.373-0.08-0.56
		c-0.107-0.4-0.16-0.733-0.16-1c-0.135-0.373-0.135-0.653,0-0.84c0.133-0.187,0.252-0.306,0.359-0.36
		c0.186-0.213,0.48-0.307,0.881-0.28c0.24,0.027,0.572,0.067,1,0.12c0.559-0.08,0.879-0.106,0.959-0.08c0.293,0,0.541,0.1,0.74,0.3
		c0.199,0.2,0.246,0.434,0.141,0.7v0.12c0.025,0.214-0.014,0.574-0.121,1.08c-0.025,0.054-0.066,0.16-0.119,0.32
		c0,0.16,0.039,0.28,0.119,0.36l-0.039,0.44c0.053,0.16,0.08,0.267,0.08,0.32c0,0.027-0.027,0.154-0.08,0.38
		c-0.055,0.227-0.094,0.44-0.121,0.64c-0.025,0.2-0.025,0.407,0,0.62v0.16c-0.025,0.134-0.059,0.334-0.1,0.6
		C158.497,45.923,158.461,46.216,158.436,46.536z"/>
	<path d="M184.036,42.056c1.812,0.214,3.359,0.254,4.641,0.12c0.533-0.053,0.826-0.066,0.879-0.04h0.201l0.279,0.08
		c0.32,0.054,0.52,0.08,0.6,0.08c0.107,0,0.301-0.046,0.58-0.14c0.281-0.093,0.461-0.14,0.541-0.14s0.305,0.027,0.68,0.08
		c0.373,0.054,0.652,0.08,0.84,0.08c0.4,0,0.773-0.08,1.119-0.24c0.561,0.054,0.98,0.06,1.26,0.02c0.281-0.04,0.514-0.08,0.701-0.12
		c0.186-0.04,0.32-0.046,0.4-0.02l0.039,0.04c0.133-0.08,0.266-0.12,0.4-0.12c0.453,0,0.68,0.24,0.68,0.72
		c0,0.054-0.02,0.154-0.061,0.3c-0.039,0.147-0.059,0.234-0.059,0.26l0.039,0.08c-0.08,0.32-0.119,0.774-0.119,1.36
		c0.025,0.187,0.012,0.374-0.041,0.56c-0.053,0.294-0.24,0.44-0.561,0.44c-0.133,0-0.238-0.013-0.318-0.04l-0.08-0.04h0.039
		l-0.16-0.04c-0.133-0.026-0.266-0.133-0.4-0.32c0.055,0.107,0.027,0.174-0.08,0.2c-0.293-0.106-0.773-0.226-1.439-0.36
		c-0.346-0.16-1.133-0.267-2.359-0.32c-0.24-0.053-0.5-0.093-0.779-0.12c-0.281-0.026-0.527-0.053-0.74-0.08
		c-0.455-0.053-0.734-0.066-0.84-0.04c-0.135,0-0.375-0.026-0.721-0.08c-0.348-0.053-0.547-0.08-0.6-0.08
		c-0.135,0-0.488,0.034-1.061,0.1c-0.574,0.067-0.967,0.1-1.18,0.1c-0.588,0-0.92,0.067-1,0.2c-0.027,0.187-0.047,0.38-0.061,0.58
		s-0.033,0.494-0.061,0.88c-0.025,0.387-0.066,0.794-0.119,1.22c0,0.107,0.039,0.293,0.119,0.56c-0.16,0.24-0.238,0.44-0.238,0.6
		v0.04c0.025,0.054,0.045,0.107,0.059,0.16c0.014,0.054,0.02,0.107,0.02,0.16c0.055,0.214,0.055,0.414,0,0.6v0.08v0.48
		c0.24-0.08,0.734-0.053,1.48,0.08c0.213,0.054,0.947,0.08,2.201,0.08l0.318-0.12c0.32-0.08,0.602-0.093,0.842-0.04
		c0.373-0.053,0.826-0.08,1.359-0.08c0.16,0.027,0.379,0.014,0.66-0.04c0.279-0.053,0.445-0.08,0.5-0.08c0.32,0,0.6-0.053,0.84-0.16
		c0.346-0.106,0.627-0.106,0.84,0c0.025,0.027,0.053,0.027,0.08,0l0.119-0.04c0.16-0.106,0.348-0.133,0.561-0.08
		c0.133,0.054,0.227,0.054,0.279,0l0.041-0.04c0.053,0,0.266-0.026,0.641-0.08c0.186-0.053,0.346-0.053,0.479,0
		c0.4,0.293,0.508,0.64,0.32,1.04v0.6c0,1.014-0.254,1.52-0.76,1.52h-0.24l-0.16-0.04c-0.025,0-0.072-0.006-0.139-0.02
		c-0.068-0.013-0.148-0.026-0.24-0.04c-0.094-0.013-0.18-0.02-0.26-0.02l-0.16-0.04c-0.24-0.053-0.547-0.066-0.92-0.04
		c-0.295,0.027-0.641-0.066-1.041-0.28c-0.16,0-0.387,0.014-0.68,0.04l-0.641,0.04c-0.16-0.026-0.398-0.066-0.719-0.12
		c-0.32,0.134-0.828,0.134-1.521,0c-0.213,0.107-0.412,0.107-0.6,0l-0.119-0.04h-0.76c-0.188-0.026-0.361-0.04-0.521-0.04
		c-0.666,0-1.332,0.067-2,0.2c-0.105,0-0.146,0.28-0.119,0.84c-0.027,0.374-0.027,0.934,0,1.68c-0.055,0.32-0.055,0.827,0,1.52
		c0.08,0.214,0.119,0.374,0.119,0.48l-0.158,0.4c-0.107,0.267-0.135,0.494-0.08,0.68c0.105,0.32,0.199,0.574,0.279,0.76
		c0.08,0.267,0.08,0.534,0,0.8c-0.135,0.427-0.146,0.694-0.041,0.8l0.121,0.12c0.105,0.107,0.16,0.254,0.16,0.44
		c0,0.054-0.041,0.2-0.121,0.44c-0.08,0.24-0.119,0.387-0.119,0.44c0,0.96,0.066,1.64,0.199,2.04c0,0.027,0.041,0.414,0.121,1.16
		c0.133,0.534,0.199,0.813,0.199,0.84c-0.027,0.188-0.039,0.48-0.039,0.88c-0.08,0.214-0.361,0.307-0.84,0.28
		c-0.135-0.026-0.602-0.013-1.4,0.04c-0.561,0-0.881-0.014-0.961-0.04c-0.213,0.053-0.52,0.026-0.92-0.08
		c-0.213-0.133-0.32-0.307-0.32-0.52c0-0.026,0.033-0.174,0.102-0.44c0.066-0.267,0.086-0.453,0.059-0.56
		c-0.025-0.267,0.027-0.467,0.16-0.601c0.053-0.053,0.041-0.213-0.039-0.48c-0.08-0.266-0.121-0.413-0.121-0.44
		c0-0.32,0.08-0.56,0.24-0.72l0.041-0.08c0.053-0.053,0.053-0.227,0-0.52c0-0.026,0.039-0.4,0.119-1.12
		c0.027-0.16,0.014-0.266-0.039-0.32c-0.08-0.293-0.121-0.533-0.121-0.72c0-0.16,0.047-0.426,0.141-0.8
		c0.094-0.373,0.127-0.613,0.1-0.72c0.027,0.054,0.041-0.066,0.041-0.36c0-0.293,0-0.893,0-1.8c0-0.906-0.014-1.733-0.041-2.48
		v-2.48l0.041-1c-0.188-0.88-0.188-1.573,0-2.08c0.08-0.213,0.092-0.346,0.039-0.4l-0.08-0.08c-0.16-0.213-0.188-0.48-0.08-0.8
		l-0.08-1.24c0-0.026-0.061-0.16-0.18-0.4c-0.119-0.24-0.18-0.453-0.18-0.64c0-0.213,0.053-0.386,0.16-0.52
		c-0.027-0.24-0.066-0.6-0.121-1.08c-0.133-0.56-0.072-0.953,0.18-1.18c0.254-0.226,0.607-0.26,1.061-0.1l0.201,0.08
		c0.105,0.027,0.238,0.014,0.398-0.04C183.528,41.936,183.795,41.976,184.036,42.056z"/>
	<path d="M200.155,55.656c-0.027-0.16,0.027-0.306,0.16-0.44c0.826-1.146,2.121-2.12,3.881-2.92c1.385-0.64,2.572-0.96,3.559-0.96
		c0.188,0,0.441,0.027,0.762,0.08c0.426-0.106,0.826-0.08,1.199,0.08c2.533,0.214,4.561,1.2,6.08,2.96
		c0.32,0.187,0.52,0.494,0.6,0.92c0,0.054,0.066,0.146,0.201,0.28c0.559,0.507,0.84,1.44,0.84,2.8v0.2
		c0,0.187-0.047,0.587-0.141,1.2c-0.094,0.614-0.141,0.974-0.141,1.08c-0.053,0.507-0.16,0.84-0.32,1v0.04
		c-0.105,0.347-0.266,0.587-0.479,0.72c-0.107,0.587-0.881,1.427-2.32,2.52c-1.041,0.801-2.668,1.374-4.881,1.721
		c-0.373,0.08-0.746,0.12-1.119,0.12c-0.854,0-1.934-0.214-3.24-0.641c-0.16-0.053-0.467-0.053-0.92,0
		c-0.16-0.106-0.561-0.373-1.201-0.8c-1.332-1.04-2.346-1.933-3.039-2.68c-0.027-0.106-0.039-0.226-0.039-0.36l-0.24-0.4v-0.08
		c-0.24-0.4-0.4-0.96-0.48-1.68c-0.027-0.16-0.041-0.413-0.041-0.76c0-1.28,0.361-2.573,1.08-3.88L200.155,55.656z M213.315,57.256
		c-0.213-0.133-0.279-0.346-0.199-0.64c-0.08-0.293-0.215-0.546-0.4-0.76c-0.055-0.053-0.146-0.253-0.279-0.6
		c-0.348-0.08-0.668-0.44-0.961-1.08c-0.293-0.4-0.561-0.6-0.801-0.6c-0.453-0.373-1.199-0.56-2.238-0.56
		c-2.08,0-3.602,0.68-4.561,2.04c-0.027,0.187-0.188,0.44-0.48,0.76c0,0.08-0.027,0.22-0.08,0.42c-0.053,0.2-0.08,0.354-0.08,0.46
		c-0.053,0.374-0.174,0.64-0.359,0.8c-0.027,0.187-0.041,0.6-0.041,1.24l-0.16,0.64c0.055,0.187,0.121,0.614,0.201,1.28
		c0.053,0.56,0.199,0.907,0.439,1.04c0.027,0.08,0.066,0.247,0.121,0.5c0.053,0.254,0.092,0.44,0.119,0.56
		c0.025,0.12,0.094,0.26,0.199,0.42c0.107,0.16,0.227,0.28,0.361,0.36c0.025,0.027,0.066,0.067,0.119,0.12
		c0.053,0.054,0.133,0.14,0.24,0.26c0.105,0.12,0.227,0.26,0.359,0.42c0.961,0.614,1.934,0.973,2.92,1.08
		c0.533,0.054,1.201-0.04,2-0.279c0.693-0.187,1.295-0.44,1.801-0.76c0.025-0.106,0.119-0.24,0.279-0.4l0.08-0.48
		c0.826-0.16,1.254-0.573,1.281-1.24c-0.055-0.16-0.08-0.266-0.08-0.32c0-0.053,0.045-0.16,0.139-0.32s0.127-0.293,0.102-0.4
		c0-0.133,0.045-0.4,0.139-0.8c0.094-0.4,0.141-0.64,0.141-0.72v-0.72c0.053-0.213,0.014-0.506-0.119-0.88
		C213.381,57.723,213.315,57.443,213.315,57.256z"/>
	<path d="M223.075,56.376c0.16-0.506,0.732-1.4,1.719-2.68c0.16-0.133,0.508-0.493,1.041-1.08c0.32-0.346,0.586-0.573,0.799-0.68
		c0.508-0.213,0.787-0.333,0.842-0.36c0.266-0.186,0.705-0.28,1.318-0.28c0.561,0,1.014,0.067,1.361,0.2
		c0.266,0.08,0.373,0.307,0.32,0.68c-0.055,0.534-0.068,0.814-0.041,0.84c0.053,0.24,0.041,0.667-0.039,1.28
		c-0.027,0.267-0.188,0.44-0.48,0.52l-0.08,0.04c-0.135,0.027-0.268,0.034-0.4,0.02c-0.133-0.013-0.273-0.033-0.42-0.06
		c-0.146-0.026-0.279-0.06-0.4-0.1c-0.119-0.04-0.219-0.073-0.299-0.1l-0.121-0.04c-0.373-0.053-0.734-0.08-1.08-0.08
		c-0.719,0.187-1.334,0.72-1.84,1.6c-0.027,0.054-0.107,0.18-0.24,0.38c-0.133,0.2-0.24,0.38-0.32,0.54
		c-0.133,0.214-0.133,0.4,0,0.56c-0.613,0.614-0.92,1.267-0.92,1.96c0,0.107-0.053,0.347-0.16,0.72
		c-0.105,0.374-0.158,0.614-0.158,0.72c0,0.107,0.025,0.24,0.078,0.4c0.055,0.16,0.055,0.667,0,1.52
		c-0.053,0.854,0.027,1.507,0.24,1.96c0.08,0.187,0.121,0.399,0.121,0.64c0,0.027,0.02,0.114,0.061,0.26
		c0.039,0.147,0.059,0.247,0.059,0.301c0,0.134-0.279,0.293-0.84,0.479c-0.48,0.187-0.906,0.253-1.279,0.2
		c-0.375-0.054-0.693-0.08-0.961-0.08c-0.666,0-1.014-0.08-1.039-0.24c-0.08-0.106-0.08-0.346,0-0.72
		c0.105-0.4,0.172-0.653,0.199-0.76c0.08-0.613,0.121-0.946,0.121-1c0.105-0.853,0.16-1.386,0.16-1.6
		c-0.08-1.12-0.027-1.866,0.158-2.24l0.041-0.08c0-0.026-0.014-0.086-0.041-0.18c-0.025-0.093-0.059-0.26-0.1-0.5
		c-0.039-0.24-0.059-0.533-0.059-0.88l0.08-1.24c0-0.187-0.068-0.573-0.201-1.16c-0.133-0.586-0.199-0.96-0.199-1.12
		c0-0.373-0.08-0.8-0.24-1.28c-0.295-0.933-0.215-1.506,0.24-1.72c0.053-0.026,0.492-0.04,1.32-0.04h1.6
		c0.32,0.08,0.48,0.374,0.48,0.88c0,0.293-0.016,0.547-0.041,0.76c-0.053,0.4-0.066,0.614-0.039,0.64c0.025,0.134,0,0.32-0.08,0.56
		l-0.08,0.4c0,0.08-0.014,0.194-0.041,0.34c-0.027,0.147-0.053,0.294-0.08,0.44C223.086,56.063,223.075,56.216,223.075,56.376z"/>
	<path d="M241.354,60.736c0.213-0.026,0.52,0.227,0.92,0.76l0.08,0.08c0.373,0.4,0.895,0.8,1.561,1.2
		c0.373,0.24,0.973,0.707,1.801,1.4c0.133,0.134,0.586,0.454,1.359,0.96c0.641,0.373,0.986,0.693,1.039,0.96
		c0.027,0.347-0.119,0.547-0.439,0.6c-0.16-0.027-0.387-0.04-0.68-0.04c-0.48,0.08-0.961,0.08-1.439,0h-0.361
		c-0.08,0-0.213,0.013-0.398,0.04c-0.188,0.053-0.375,0.04-0.561-0.04c-0.641,0-1.08-0.146-1.32-0.44l-0.199-0.239
		c-0.188-0.214-0.494-0.561-0.92-1.04c-0.455-0.48-0.695-0.733-0.721-0.76c-1.014-0.826-1.627-1.4-1.84-1.72
		c-0.08-0.133-0.254-0.333-0.52-0.6c-0.535-0.16-0.895-0.453-1.08-0.88c-0.24-0.24-0.828-0.733-1.762-1.48l-0.119,0.08
		c-0.08,0.08-0.119,0.267-0.119,0.56c0,0.08,0.039,0.26,0.119,0.54s0.119,0.474,0.119,0.58c0,0.107-0.025,0.287-0.078,0.54
		c-0.055,0.253-0.08,0.407-0.08,0.46c0,0.16,0.053,0.467,0.158,0.92c0.107,0.347,0.135,0.707,0.08,1.08
		c-0.025,0.134-0.006,0.374,0.061,0.72s0.1,0.533,0.1,0.56c0,0.08,0.033,0.207,0.102,0.38c0.064,0.174,0.1,0.287,0.1,0.34
		c0,0.134-0.107,0.268-0.32,0.4h-0.121c-0.078,0.026-0.213,0.046-0.398,0.06c-0.188,0.014-0.375,0.021-0.561,0.021l-0.561-0.08
		h-0.119c-0.08,0.026-0.18,0.046-0.301,0.06c-0.119,0.014-0.232,0.021-0.34,0.021c-0.268-0.054-0.439-0.067-0.52-0.04
		c-0.295,0-0.494-0.014-0.6-0.04c-0.215-0.026-0.348-0.267-0.4-0.72c-0.027-0.427,0.014-0.786,0.119-1.08
		c0-0.16,0.041-0.44,0.121-0.84c-0.107-0.106-0.121-0.293-0.041-0.56c0-0.053,0.027-0.106,0.08-0.16c0.053-0.08,0.053-0.28,0-0.6
		c-0.053-0.266-0.039-0.6,0.041-1l0.119-0.64c0.053-0.986,0.066-1.986,0.041-3l-0.08,0.24c0.186-2.106,0.227-4.293,0.119-6.56
		c-0.027-0.293-0.014-1.213,0.041-2.76c0-0.186-0.047-0.46-0.141-0.82s-0.141-0.58-0.141-0.66c0-0.24,0.053-0.466,0.16-0.68
		c0.08-0.213,0.08-0.4,0-0.56l-0.08-0.12c-0.107-0.106-0.16-0.24-0.16-0.4c0-0.106,0.047-0.24,0.141-0.4
		c0.094-0.16,0.141-0.267,0.141-0.32c-0.08-0.266-0.148-0.866-0.201-1.8c0-0.853-0.039-1.453-0.119-1.8
		c-0.027-0.16-0.066-0.36-0.121-0.6c-0.053-0.187-0.08-0.293-0.08-0.32c0-0.293,0.146-0.546,0.441-0.76
		c0.133-0.026,0.492-0.026,1.08,0c0.479-0.053,1.025-0.093,1.639-0.12c0.107-0.026,0.334-0.04,0.68-0.04
		c0.4,0.08,0.602,0.294,0.602,0.64c0,0.08-0.021,0.254-0.061,0.52c-0.041,0.267-0.061,0.44-0.061,0.52
		c0,0.747-0.066,1.187-0.199,1.32l0.039,0.08c0.133,0.24,0.133,0.507,0,0.8c-0.213,0.64-0.32,2.2-0.32,4.68
		c0,0.107-0.02,0.4-0.059,0.88c-0.041,0.48-0.061,0.787-0.061,0.92v1.16c0,1.227-0.027,1.947-0.08,2.16v0.04
		c0.133,0.293,0.146,0.56,0.041,0.8l-0.041,0.08c0.16,0.24,0.199,0.494,0.121,0.76c0,0.054-0.021,0.16-0.061,0.32
		c-0.041,0.16-0.074,0.28-0.1,0.36c-0.027,0.24-0.094,0.627-0.201,1.16c-0.08,0.587-0.066,0.88,0.041,0.88
		c0.105,0,0.213-0.08,0.32-0.24c0.318-0.346,0.639-0.52,0.959-0.52l0.24-0.48c0.08-0.186,0.412-0.373,1-0.56
		c0.373-0.374,1.053-0.946,2.039-1.72c0.188-0.213,0.682-0.626,1.48-1.24c0-0.213,0.08-0.374,0.24-0.48c0.025,0,0.266-0.2,0.721-0.6
		c0.213-0.16,0.545-0.227,1-0.2c0.133,0,0.266,0.007,0.398,0.02c0.135,0.014,0.24,0.02,0.32,0.02s0.188,0.014,0.32,0.04h0.041
		l0.719-0.08c0.293,0,0.613,0.06,0.961,0.18c0.346,0.12,0.52,0.233,0.52,0.34c0,0.267-0.547,0.747-1.641,1.44
		c-0.133,0.08-0.459,0.287-0.979,0.62c-0.521,0.333-0.928,0.58-1.221,0.74c-0.268,0.214-0.52,0.374-0.76,0.48h-0.041
		c-0.318,0.32-0.559,0.467-0.719,0.44c-0.16,0.213-0.414,0.394-0.76,0.54c-0.348,0.146-0.561,0.247-0.641,0.3
		c-0.986,0.8-1.48,1.187-1.48,1.16c0,0.027,0.188,0.227,0.561,0.6c0.373,0.347,0.613,0.547,0.721,0.6
		c0.105,0.16,0.373,0.44,0.799,0.84C241.02,60.296,241.274,60.576,241.354,60.736z"/>
</g>
<g>
</g>
<g>
	<path fill="#030104" stroke="#030104" stroke-width="1.5" stroke-linecap="round" stroke-linejoin="round" d="M124.572,5.701
		c10.5,1,16.5,8,16,29h-23c0-9,10-6.5,8-21"/>
	<path fill="#030104" stroke="#030104" stroke-width="1.5" stroke-linecap="round" stroke-linejoin="round" d="M126.572,13.701
		c0.38,2.91-5.55,7.37-8,9c-3,2-2.82,4.34-5,4c-1.042-0.939,1.41-3.04,0-3c-1,0,0.19,1.23-1,2c-1,0-4.003,1-4-4c0-2,6-12,6-12
		s1.89-1.9,2-3.5c-0.73-0.994-0.5-2-0.5-3c1-1,3,2.5,3,2.5h2c0,0,0.78-1.992,2.5-3c1,0,1,3,1,3"/>
	<path fill="#FFFFFF" stroke="#FFFFFF" stroke-width="1.5" stroke-linecap="round" stroke-linejoin="round" d="M112.072,21.201
		c0,0.276-0.224,0.5-0.5,0.5s-0.5-0.224-0.5-0.5s0.224-0.5,0.5-0.5S112.072,20.925,112.072,21.201z"/>
	<path fill="#FFFFFF" stroke="#FFFFFF" stroke-width="1.5" stroke-linecap="round" stroke-linejoin="round" d="M117.505,11.451
		c-0.415,0.717-0.944,1.188-1.183,1.049c-0.239-0.138-0.097-0.832,0.317-1.549c0.415-0.717,0.944-1.188,1.183-1.049
		C118.061,10.04,117.919,10.734,117.505,11.451z"/>
	<path fill="#FFFFFF" d="M127.122,6.102l-0.45,1.449l0.5,0.15c3.15,1,5.65,2.49,7.9,6.75s3.25,10.311,2.75,20.25l-0.05,0.5h2.25
		l0.05-0.5c0.5-10.061-0.88-16.85-3.25-21.34s-5.79-6.641-9.189-7.16L127.122,6.102z"/>
</g>
<polyline fill="none" stroke="#00388A" stroke-width="3" stroke-miterlimit="10" points="98.454,20.201 4.465,20.201 4.465,32.775 
	"/>
<polyline fill="none" stroke="#00388A" stroke-width="3" stroke-miterlimit="10" points="149.425,20.201 243.415,20.201 
	243.415,7.639 "/>
<g>
</g>
<g>
</g>
<g>
</g>
<g>
</g>
<g>
</g>
<g>
</g>
</svg>
